<?xml version="1.0" encoding="UTF-8"?>
<svg width="400" height="460" version="1.1" xmlns="http://www.w3.org/2000/svg">
 <g fill="#009edb">
  <path d="m339.47 356.02h11.271l39.257 91.737h-14.513l-9.1956-22.68h-43.661l-9.0684 22.68h-14.508zm22.282 58.179-17.097-42.1h-0.25966l-17.363 42.1zm-147.04-58.179h12.432v38.089h47.545v-38.089h12.444v91.737h-12.444v-41.985h-47.545v41.985h-12.432zm-27.345 19.825c-5.1787-6.7276-13.733-10.485-22.154-10.485-20.599 0-34.199 16.449-34.199 37.303 0 19.316 12.82 35.766 34.199 35.766 10.496 0 18.524-4.6703 23.969-12.311l10.496 7.8953c-2.7219 3.7683-13.733 16.079-34.725 16.079-29.148 0-47.152-24.368-47.152-47.429 0-28.494 19.559-48.966 47.799-48.966 12.051 0 24.75 4.5312 32.13 14.253zm-177.36 26.055c0-27.211 19.825-48.204 47.805-48.204 27.986 0 47.805 20.992 47.805 48.204 0 27.189-19.819 48.192-47.805 48.192-27.98 0-47.805-21.004-47.805-48.192zm82.397 0c0-20.09-13.6-36.54-34.592-36.54s-34.586 16.449-34.586 36.54c0 20.079 13.594 36.529 34.586 36.529s34.592-16.449 34.592-36.529z"/>
  <path d="m286.91 48.45-67.168 67.207-2.4964-2.4935 67.167-67.197zm34.274 82.7v3.5055h-95.049v-3.5055zm-34.274 86.082-2.497 2.5089-67.167-67.084 2.4964-2.4822zm-85.143-58.24v95.023h-3.5488v-95.023zm-18.952-6.3346-67.156 67.084-2.497-2.5089 67.139-67.057zm-8.947-21.507v3.4913h-95.014v-3.4913zm8.947-17.986-2.5142 2.4935-67.139-67.207 2.497-2.4828zm18.952-101.47v95.095h-3.5488v-95.095zm-124.65 121.21c0-67.896 55.024-122.98 122.9-122.99 67.878 0.0127 122.92 55.096 122.92 122.99 0 67.881-55.041 122.89-122.92 122.89v-3.5316c65.931-0.11019 119.29-53.411 119.4-119.36-0.1102-65.948-53.469-119.35-119.4-119.47-65.919 0.12445-119.27 53.524-119.39 119.47 0.1273 65.951 53.475 119.25 119.39 119.36v3.5316c-67.872 0-122.9-55.012-122.9-122.89zm25.559 0c0-53.847 43.556-97.393 97.337-97.393 53.805 0 97.419 43.546 97.419 97.393 0 53.767-43.614 97.352-97.419 97.352v-3.531c51.857-0.0982 93.801-42.019 93.887-93.821-0.0865-51.885-42.03-93.789-93.887-93.873-51.845 0.0836-93.719 41.987-93.818 93.873 0.0982 51.802 41.973 93.723 93.818 93.821v3.531c-53.781 0-97.337-43.585-97.337-97.352zm23.09 0c0-41.02 33.269-74.218 74.259-74.218 40.968 0 74.19 33.199 74.207 74.218-0.0158 40.953-33.24 74.175-74.207 74.175v-3.5316c39.02-0.0694 70.618-31.627 70.687-70.644-0.07-39.071-31.668-70.629-70.687-70.728-39.031 0.0982-70.658 31.656-70.728 70.728 0.0693 39.017 31.697 70.574 70.728 70.644v3.5316c-40.991 0-74.259-33.194-74.259-74.175zm24.183 0c0-27.63 22.391-50.119 50.076-50.119 27.622 0 50.076 22.474 50.076 50.119 0 27.59-22.454 50.039-50.076 50.051v-3.5204c25.645-0.0402 46.516-20.902 46.562-46.53-0.0462-25.697-20.917-46.545-46.562-46.6-25.709 0.0551-46.487 20.902-46.545 46.6 0.058 25.628 20.836 46.49 46.545 46.53v3.5204c-27.685 0-50.076-22.461-50.076-50.051zm22.165 0c0-15.435 12.548-27.911 27.911-27.911 15.438 0.0551 27.841 12.49 27.87 27.911-0.0285 15.395-12.45 27.815-27.87 27.859v-3.534c13.49 0 24.351-10.866 24.351-24.325 0-13.484-10.89-24.365-24.351-24.365-13.455 0.0158-24.368 10.881-24.391 24.365 0.0222 13.458 10.936 24.296 24.391 24.325v3.534c-15.363 0-27.911-12.435-27.911-27.859z"/>
  <path d="m270.92 112.9c-1.0233-0.4072-2.1621 0.12414-3.1155 0.71377-2.017 1.0375-2.2716 3.7429-3.5428 5.1876-0.87298 0.98246-1.8786 1.4708-3.0865 1.4015-0.15611 0-0.61848-0.19634-0.67057-0.58948 0-0.58653-0.21375-1.1908 0.23687-1.6673 0.40482-0.32078 0.86706-0.58948 1.1505-1.0665 0.56053-0.89607 0.1273-1.962-0.0871-2.803-0.49121-1.8353-2.41-2.9161-4.1613-2.6213-1.7684 0.34979-2.803 2.1875-3.7861 3.7855 0 0-0.35217 0.0408-0.35217 0-0.67054-0.82621-1.5548-1.2624-2.017-2.1324-0.1102-0.0839-0.1102-0.28057 0-0.46224 0.69898 0.3782 1.3465 1.4305 2.0863 0.99668 0.71671-0.42199 0.0865-1.3873-0.46227-1.5838-0.61256-0.21058-1.2026-0.82919-1.9886-0.74217-0.54865 0.0402-1.208-0.77178-1.3867-1.4305-0.22547-0.98309-0.31255-2.2716-1.1618-2.5379-0.9132-0.37816-1.7572-0.42138-2.6355-1.0517-0.41075-0.21058-0.91324 0.16752-1.3062 0.13838 0.27708-0.27993 0.0402-0.93866 0.1786-0.93866 1.0985-0.0982 2.445-0.0982 1.7862-1.3323-0.29481-0.5871-0.88423-1.1766-1.572-0.68536-0.21439 0.0982-0.61848 0.0982-0.69955 0.39298-0.1444 0.19412-0.18525 0.48887-0.31192 0.67058-0.19633 0.46521 0.33497 1.3323 0 1.6128-0.68834 0.46224-1.6821 0.42199-2.5379 1.0227-0.0982 0.0437-0.42142 0.0437-0.5605 0-0.73983-0.25112-1.907-1.092-2.2538-0.71377-0.52025 0.63033-0.64749 1.4305-1.266 1.7513-0.54334 0.26885-1.2482 0.3097-1.8205 0.57529-0.9943 0.39299-0.42202 1.6702 0 2.5953 0.20774 0.32078 0.0693 0.85522-0.28341 1.1068-0.71079 0.4072-0.86707-0.49122-1.0346-0.84101-0.29482-0.89905-0.5605-1.9075-0.5605-2.861-0.0871-0.97951 1.1618-1.6128 1.4565-2.5521 0.21375-0.57174 0.38117-1.231-0.0285-1.878-0.44511-0.68536-1.1618-1.0233-1.8324-0.81199-1.7797 0.47642-2.2887 3.5458-4.069 2.748-0.90732-0.34979-1.7104-1.2891-2.6929-1.7543-0.5611-0.3782-1.0926-0.76881-1.7229-0.29165-1.2482 0.93926-2.774 1.4855-4.0921 2.1301-1.179 0.54628-2.2135 1.933-2.9012 3.225-0.74572 1.6241-3.7163 2.5373-4.6987 0.60132-0.47405-0.93926-1.4684-1.682-2.5201-1.653-0.97122 0.15263-1.3062 1.4157-2.3698 1.653-0.77472 0.14155-1.2198-0.12413-1.5145-0.71437-0.0462-0.15263-0.0462-0.43323 0-0.49121 1.4453-1.1902 2.9302-2.0744 4.7224-2.7628 0.87242-0.29165 0.98249-1.231 0.65873-2.0744-0.0127-0.13902-0.0693-0.39061-0.19633-0.5871-0.0811-0.4504-0.15042-1.1358-0.30653-1.1358-2.1904 0.16815-4.0222 1.7229-5.1207 3.7139-0.1387 0.27993-0.26568 0.68773-0.44511 0.68773-1.3873-0.11241-2.803 0.67352-3.9707-0.11241-0.24859-0.15327-0.58359-1.7513-0.75696-1.5838-0.5605 0.58951-0.89611 1.3175-1.4163 1.9478-0.13838 0.32376-0.51433 0.47646-0.72798 0.80019-0.786 1.205 0.72798 2.4538 0.38114 3.4221-0.23687 0.48827-1.514 0.48827-2.3408 0.68476-0.42199 0.14155-0.42199 0.82622-0.38117 1.3755 0.0573 0.43324 0.53152 0.37877 0.815 0.53147 0.81498 0.80078 0.86707 2.1733 1.9069 2.6503 1.2601 0.57525 2.7918 0.1824 4.3004 0.57525 0.97121 0.22262 1.7081 0.89551 2.1325 1.8928 0.23718 0.5315 1.0404 0.81203 1.0813 1.6383 0.0402 0.28056 0.40426 0.54628 0.79721 0.74277 0.451 0.15612 1.0405-0.3059 1.4743-0.10957 0.64157 0.18177 0.37525 1.0227 0.54334 1.54 0.31192 0.99727-0.22008 2.075 0.83214 3.0575 0.39298 0.33557-0.41075 1.3583-0.85583 1.9336-0.19633 0.19633-0.84337 0.19633-0.9132 0.50543-0.25397 0.88483-0.0402 1.6969 0.39355 2.3846 0.32316 0.40423 0.83809 0 0.96473 0.27994 0.77476 0.96529 1.0926 2.046 1.74 2.9308 0.28278 0.335 0.58951 0.76824 0.96533 0.91029-0.46284 0.0982-0.60129 0.67292-0.46284 0.88125 0.28341 0.3788 0.92508 0.61849 1.266 0.26885 0.53209-0.35273 1.1038-0.47702 1.624-0.95348 0.30654-0.33852 0.82682-0.21122 1.1506-0.53501 0.36398 0.33852 0.66997 1.0955 0.42196 1.4163-0.77473 0.757-2.162 0.23972-3.0575 0.8292-0.61848 0.28056-1.2198 0.12413-1.5435 0.61553-0.3059 0.3097 0 1.0233 0.5492 1.0925 1.959 0.42203 0.43326 3.254-0.52022 4.6987-0.22547 0.30653 0 0.84103-0.1102 1.4424-0.0751 0.2546-0.43919 0.4072-0.65873 0.4072-1.8845 0.16815-3.8033-0.49124-5.5137 0.1273-0.59242 0.16815-0.8842 0.9943-1.1618 1.682h0.33497c-0.50248 0.0551-0.50248 0.60132-0.61848 0.88128-0.0982 0.33852-0.0519 0.98306-0.26568 1.292-1.653 1.8206-1.8897 4.1353-2.1845 6.2512-0.058 0.64394 0.74515 1.0659 1.208 1.0659 0.46224 0 1.121-0.53149 1.5258-0.53149 0.85522 0.10957 0.64748 1.4276 0.96529 1.991 0.36401 0.65873 1.63 0.7688 1.7685-0.0982 0.20773-0.74575 0.20773-1.6128 0.45096-2.2715 0.26569-0.91324-0.70547-1.5287-0.88422-2.3698-0.22547-0.80018 0.17891-1.4998 0.64099-2.0342 0.31255-0.30653 0.81498 0.0722 1.0115 0.53444 0.17923 0.47702 0.17923 1.1068 0.36455 1.6531 0.10956 0.57526-0.29482 1.263 0.0285 1.6672 0.32315 0.39359 0.51965 0.92802 0.37521 1.4044-0.0519 0.25143-0.37521 0.46284-0.5433 0.76883-0.22547 0.64749 0.16815 1.5146-0.36398 1.7542-0.5605 0.43384-0.49124 1.2198-1.15 1.2749-1.5027 0.0982-3.3233-0.69958-2.832-2.3816-0.60132-0.058-1.237-0.058-1.5027 0.47405-0.31841 0.67355 0 1.7395-0.39358 2.2858-0.56047 0.68773-0.92448 1.4015-1.537 2.104-0.21438 0.15327 0.29482 0.26569 0.0982 0.49125-0.80373 0.93926-1.7282 1.3032-2.7107 2.0342-0.0519 0-0.0982 0-0.0982 0.17924-0.64156 0.42199-1.7223-0.26569-1.9768 0.50305-0.36398 0.80316 0.80316 1.3465 1.179 2.1615 0.22547 0.54923 0.0871 1.1908-0.67057 1.2891-1.092 0.26568-2.046 0.11527-3.196-0.058 0 0.32373-0.29482 0.28342-0.29482 0.38174-0.19633 0.9653 0 1.7513-0.74575 2.6065-0.47408 0.61848 0.23687 1.3755 0.65873 1.8957 0.48001 0.64157 0.6765 1.5258 1.2778 1.6821 0.47348 0.12128 0.88419 0.5433 1.3174 0.48529 0.92507-0.23687 1.5838-0.58355 1.9478-1.5838 0.13838-0.58358 1.1387 0.0982 1.7975-0.10956 0.15042-0.058 0.48593-0.16752 0.6126-0.26569 0.50897-0.5895-0.12667-1.4335 0.16815-1.7803 0.99962-1.179 2.1324-2.133 3.4676-2.9882 0.43324-0.36401 1.1038-0.73983 1.7626-0.52025 0.50309 0.15611 0.94221 0.48 1.4856 0.68773 0.50901 0.2546 0.92504 0.60724 1.4334 0.902 0.1102 0.10956 0.5143 0.24858 0.75696 0.36397 0.87891 0.37582 1.4163 1.4678 2.3816 2.017 0.28278 0.13902 0.0693-0.38114 0.36404-0.16751 0.0285-0.88423-0.15643-1.7401-0.57237-2.2597-0.57764-0.85582-1.5317-1.289-2.1733-1.9768-0.24256-0.20836-0.24256-0.82681 0.12129-1.1908 0.0751-0.16752 0.39358-0.16752 0.41078 0 0.52022 0.46224 1.0346 0.46224 1.5719 0.72798 1.0636 0.46281 0.86706 2.0638 1.9016 2.5953 0.54926 0.29481 0.84402 1.1097 1.5028 1.2198 0.7688 0.26568 2.017 0 2.4508-0.92508 0.34092-0.56047-0.30654-0.88423-0.69955-1.2482-0.76884-0.58947 0.39298-0.85522 0.77472-1.3181 0.66998-0.81497 0-1.514-0.0751-2.3-0.0811-0.32373 0.1444-0.52022 0.34093-0.67057 0 0 0.0519-0.0982 0.15041-0.15612 0.45043-0.96827 0.0462-2.017 0.41015-2.9563 0.13838-0.21059 0.39298-0.1824 0.39298-0.11242 0.27772 0.46224 0.80906 0.79724 1.2891 0.62976 0.78597-0.19634 1.3986-0.58951 1.9478-1.2891 0.67058-0.88426 2.1041-0.39301 2.4509 0.44802 0.1558 0.64451-0.0519 1.5287-0.56107 1.6963-1.6933 0.25143-3.0516 0.8848-4.3176 1.74-0.16752 0.15042-0.39299 0.26568-0.49125 0.47405-0.67051 0.49124-0.93629 0.98249-0.57231 2.0342 0.07 0.39302-0.4504 0.81501-0.82618 1.1908 0.64153 0.21375 0.64153 1.0115 1.231 1.1387 1.0694 0.24858 2.046 0.29482 2.803-0.43972 0.18525-0.27709 0.39302-0.85523 0.28342-1.3406 0.68774-0.0871 1.1499-0.74575 1.8898-0.90199 1.4856-0.23687 2.3408 1.3873 1.9478 2.6823-0.0804 0.24858-0.46224 0.24858-0.58356 0.33501-0.77472 1.2198-1.3642 2.41-2.5663 2.9303-1.8496 0.93632-4.1093 0.72855-5.751 1.682-0.62975 0.42199-0.82628 1.5258-1.7626 1.7916-0.81501 0.21438-1.8555 0.68773-2.6935 0v0.18525c0 0.61848-1.9188 0.19633-2.8498-0.18525-0.3059-0.10957-0.12128-1.0227-0.51433-1.3696-0.32369-0.21375-0.95345 0.0982-1.092-0.26568-0.19633-0.19633 0-0.67649-0.2432-0.73448-2.1845-0.37525-4.2187 0.29545-6.4441 0.058-0.58948-0.058-0.53739 0.72856-1.0286 1.0926-0.40483 0.19633-0.79781 0.58947-1.2198 0.75696-0.87831 0.45099-1.8324 1.0808-2.9013 0.68773-0.92508 0.29482-1.7803 0.42199-2.6184 0.57827-1.3873 0.26568-2.1733 1.4275-3.312 2.2135-0.87831 0.58948-1.9075 0.69955-2.8841 0.64157-0.28278 0-0.1273 0.46224-0.38114 0.46224-1.4974 0.38174-2.861 2.2715-3.7168 3.9015-0.24859 0.43323 0.0751 1.0636-0.19634 1.4447-0.78007 1.2198-1.1908 2.4219-2.2715 3.4334-0.10957 0.1102-0.10957 0.4338-0.0693 0.63032 1.208 1.653 2.6355 2.7628 3.8554 4.456 0.29482 0.46224 0.90136 0.46224 1.0807 0.90139 0.47997 1.0636 1.1387 2.0176 1.6992 3.0114 0.78005 1.4163 2.832 1.9768 4.5952 1.4163 0.64689-0.17924 1.4044 0.43323 1.994 0.5605 2.0058 0.18525 4.1323 0.65873 6.0109-0.35277 2.803 0.87299 5.722-0.34621 8.2711 0.87299 0.50838 0.13838 0.50838 1.0636 0.87239 1.682 0.58947 1.1097 1.2719 2.2307 2.3408 3.0285 0.89607 0.63033 2.1733 1.0517 3.4221 1.1618 0.34687 0 0.40425 0.88423 0.71082 1.2482 0.36404 0.48 0.19633 1.2198 0.64749 1.5838 0.61848 0.58948 1.15 1.0115 1.1097 1.8667 0 1.0062-1.237 1.8904-0.49124 3.2256 0.1786 0.41607-0.0871 1.1038 0.12667 1.3696 1.5956 1.5838 3.0984 3.0747 5.0284 4.5028 0.18525 0.16752 0.53209 0.40426 0.38177 0.79724 0.7398 0.21375 0.83806 0.95348 1.3293 1.3583 0.38178 0.47997 0.16752 1.2251 0.54923 1.6992 0.65873 0.786 1.3755 1.5436 2.1271 2.2313 0.98249 0.89547 2.3461 0.68774 3.5198 0.93632 0.26569 0.18462 0.58954 0.39298 0.92448 0.49121 1.1097 0.35277 2.3177 0.46224 3.283-0.27771 0.54926-0.46224 1.0346-1.3175 1.572-1.6412 0.83806-0.68774 2.1271-0.63033 3.2777-0.84398 0.22483-0.0409 0.5605-0.16752 0.71674-0.46224 0.13838-0.65933 0.74512-1.0062 0.69898-1.6531 0.85522-0.0408 1.5146-0.47998 2.2135-0.84398 1.4044-0.72856 2.468-2.1443 3.7861-3.2771 1.3175-1.237 3.5369-0.68774 4.2483-2.0751 0.71675-1.3583-0.27771-3.225 0.35214-4.8088 0.36461-0.72856 0.82685-1.6128 0.89607-2.4278 0.11558-1.3696 0.16752-2.7859 0.0693-4.1614-0.0693-0.79781-0.89607-1.6128-0.79724-2.3988 0.0573-0.57171 1.0517-0.57171 1.2594-1.0517 0.49124-1.1216 0.95408-2.2828 1.5317-3.3351 0.0982-0.21375 0.50309-0.31192 0.83809-0.53146 0.50898-0.36401 0.07-0.94225 0.16815-1.4737-0.41667-0.1273-0.61316-0.59008-0.79784-0.85582-1.179-1.6702-2.2715-3.283-4.2193-4.0802-0.47408-0.13902-0.52025-0.65933-0.73983-1.0523-0.18525-0.15041 0.0693-0.66997-0.11526-0.85522-0.52025-0.29481-0.32373-0.786-0.451-1.15h0.46816c-0.0158-0.0127 0-0.0408 0-0.0408-0.19633 0-0.2717-0.16752-0.2717-0.22547 0.43915-1.1612 1.0979-2.2135 1.9768-2.9705 0.25397-0.2546 0.9304-0.2546 1.0115-0.56047 0.23686-0.99433 0.18461-2.0176-0.29482-2.861-0.71674-1.2198-0.0811-2.439-0.27772-3.5896-0.18525-2.2946-0.18525-4.3868-1.237-6.4618-0.22547-0.6416-0.80905-1.121-1.6241-0.89551-0.39298 0.0573-0.35273 0.57175-0.57823 0.89551-0.27708 0.32372-0.335 0.74571-0.47348 1.318-0.32376 0.75699-1.3471 0.99433-1.6128 1.7975-0.13839 0.48532-0.26569 0.95348-0.47941 1.2713-0.36457 0.38174-0.69954 0.90196-1.1908 1.0002-0.82682 0.27772-1.6128 0.47409-2.3929 0.62973-0.84398 0.17923-1.7684 0.17923-2.6817-0.0864-4.7804-1.3293-8.8725-3.1788-13.669-4.4969-0.0519 0-0.0519-0.32376 0-0.38117 0.74575-0.37582 1.543 0.16751 2.329-0.0409 0.54923-0.0982-0.10957-0.85522 0.16815-0.85522 0.9937 0.23686 1.8087 0.89607 2.7912 1.2772 1.9886 0.68181 3.9536 0.8789 6.0689 1.318 1.6418 0.36401 2.7746 1.5258 4.3353 1.9188 1.3293 0.40421 2.1958-0.60136 3.2191-1.0115 0.058 0-0.0222-0.42199 0.058-0.5433 0.46224-0.85526 1.3062-1.3062 1.6531-2.104 0.24257-0.57763-0.12128-1.4737 0.24257-2.1324 0.17923-0.30652 0.71082-0.61847 0.83806-0.98248 0.26568-1.0233 0.11558-2.075 0.11558-3.0806 0.58355 0.0516 1.0346-0.59008 0.86706-0.85583-0.13838-0.15549-0.18525-0.41014-0.28341-0.56047 0-0.58947 0.0982-1.2228 0.22546-1.8525 0.31255-1.4998-0.1273-2.9735-0.73982-4.2483-0.31192-0.67292-1.208-0.85522-1.9247-0.67292-0.21945 0.14155-0.3059 0.53444-0.5315 0.67292-0.72855 0.0551-1.3465 0.3788-1.7915 0.74277-0.61848 0.49124-0.59008 1.5436-1.1097 1.9768-0.9132 0.75699-1.7921 1.5578-2.9882 2.0058-0.75756 0.36401-1.8614-0.0693-2.017-0.70253-0.72856-1.9478 1.9188-1.598 3.254-1.9478 0.1786-0.12731 0.49125-0.44805 0.6416-0.70196 0.3699-0.68536 0.51962-1.682 1.2654-2.046 0.49124-0.1824 1.0523-0.1824 1.5436-0.11305 0.47348 0.11305 0.83806-0.5605 1.3405-0.84103 0.39299-0.18176 0.36458-0.95348 0.52022-1.3725 0.23719-0.80079 1.1216-1.2198 1.4856-1.9076 0.82622-1.4849 0.82622-3.7133 2.0229-4.878 0.80908-0.62975 0.38709 1.0665 0.69958 1.4305 0.50249 0.69956 1.9188 0.63033 2.3982 0.11305 0.4161-0.42202-0.0462-1.4885 0.71082-1.9076 0.3415-0.0693 0.72862-0.0693 1.0115 0 0.56107 0.364 1.2316 0.99433 1.8211 0.64454 0.41014-0.28057 0.84341-0.87004 1.2772-1.0085 0.68774-0.22546 1.4737 0 2.1733-0.30937 1.7223-0.80019 5.3291 0.30937 5.1326-1.3613-0.31255-2.6906-2.497-4.8201-4.8668-6.0689-1.8898-0.89842-1.179-3.5488-2.8728-5.0337-0.43327-0.3097-0.21375-0.9943-0.57767-1.4163-0.12128-0.13838-0.364-0.34979-0.63032-0.47706-0.24858-0.19633-0.53149-0.43323-0.53149-0.51727 0.28278-1.4015-0.39299-2.719 0.35276-3.8837 0.37522-0.5605 1.2192-0.84103 1.7104-1.2488 0.60131-0.4883 1.6939-0.86649 1.6939-1.6672 0-1.0926-0.1102-2.2858 0.0865-3.4215 0.0982-0.37879 0.7688-0.68476 1.1618-0.68476 1.9768-0.0437 4.1092 0.48827 5.9303-0.71674 0.46224-0.40483 0.51968-0.99433 0.8144-1.3583 1.4163-2.075 3.5725-3.6878 3.4914-6.3814-0.0462-0.47643 0.71082-0.60073 0.89607-1.176 0.12667-0.26567 0.12667-0.74277 0-0.74277zm-38.118 45.239c0 0.15613 0.0811 0.40721-0.0865 0.46521-0.33557 0.39004-1.0346 0.16752-1.202-0.35273-0.2546-0.53149-0.50901-1.121-1.0233-1.3323-0.50838-0.0982-0.95345-0.0402-1.208 0.47703-0.52025-0.37876-1.0405-0.0982-1.5146-0.19634 0.16815-0.81199-0.64689-0.75696-1.0807-1.289-0.50252-0.47644-0.32379-1.4305 0.4338-1.682 0.57763-0.26567 1.0689 0.21123 1.1961 0.85582-0.0751-0.11305-0.1273-0.11305-0.15611-0.24034 0 0.24034-0.11527 0.39358 0 0.54923 0.52022 0.4883 1.1215-0.15548 1.6939 0.26568 0.65873 0.39301 1.5607-0.22483 2.3177 0.22262 0.0402 0-0.0871 0.36694 0.17924 0.36694 0.84338 0.13903 1.1381 0.88189 0.94164 1.5146-0.0573 0.15326-0.19634 0.44805-0.49125 0.37584zm-27.182-34.696h0.31781c0.0285-0.16752 0-0.37876 0.19633-0.60426 0.19633-0.27994-0.1102-0.68479-0.30653-0.88128-0.28595-0.32372-0.86707 0-0.6759 0.60131h0.29482c-0.07 0.27995-0.07 0.5605 0.17353 0.88423zm59.133-38.511c-0.49125-0.21058-1.266 0.26632-1.659-0.58947-0.0402-0.0982-0.43383-0.0982-0.58355 0-0.1273 0.0697-0.1273 0.2226-0.21438 0.2948-0.27709 0.39299-0.60075 0.68536-0.27709 0.98012 0.43327 0.32374 0.54274 0.63268 0.78597 0.99667 0.2888 0.54629 1.092 0 1.2601 0.49125 0.12667 0.47405 0.56047 0.63032 0.89547 0.39061 0.40483-0.1824 0.0693-0.88186 0.19665-1.2459-0.25397 0.16751-0.1273-0.46224-0.32379-0.17037 0.1273-0.40483 0.38174-0.97951-0.0804-1.1476zm0.58947 5.1994c1.0458 0.61848 0.0222 1.7394 0.83806 2.0744 0.57766 0.39357 1.7513 0.60428 2.3 0.0728 0.43383-0.32373-0.0158-1.1097-0.88423-1.1648-0.35216-0.0431-0.32376-0.67352-0.25396-1.1215-0.21945 0-0.40483-0.15327-0.50309-0.25144-0.83806-0.5747 0.71674-1.0115 0.2546-1.7395-0.15612-0.15326-0.058-0.50543-0.2546-0.53146-0.30654-0.15611-0.65873 0.0253-0.78597 0.3782-0.26568 0.32079 0.21375 0.74277 0.0285 1.1358-0.22547 0.48827-1.179 0.85522-0.73983 1.1476zm4.0921 3.9968c0.0573-0.54628-0.058-1.0926-0.67649-1.1908-0.10957 0.85525-0.95345 0.64454-1.4157 1.0926-0.58416 0.46224 0.0462 1.2192 0.67589 1.4708 0.13902 0 0.13902 0.2546 0.23719 0.2546 1.179 0.47646 2.1153-0.46281 1.6412-1.627 0-0.07-0.26569 0-0.46224 0zm0.46224 2.3c-0.85522 0.67058 0.36401 1.3731 0.1273 2.3124h0.34685c0.54922 0.25111 0.54922-0.42199 0.67589-0.68834-1.0227 0.058-0.85522-1.0375-0.786-1.624-0.0865 0-0.23686-0.0865-0.36397 0zm3.0404 7.1496c-0.17923-0.58948 0-1.3465-0.0811-2.075-0.0982-1.2482-1.4447-1.4447-2.4852-1.4447-0.47409 0-1.0523-0.15327-1.1506 0.37879-0.0804 0.47643-0.0804 0.9937 0.29545 1.598 1.9359 2.2165 1.7797 5.3841 2.6237 7.9646 0.27771 1.0488 2.0869 0.20836 2.3988-0.89905 0.17923-0.57466 0.20773-1.205 0.0982-1.7513-0.26569-0.57468-0.81498-0.96767-0.95349-1.6122-0.13901-0.815-0.61845-1.3755-0.74571-2.1591zm-11.987-11.245c-0.44508 1.5578-0.13902 3.2256-0.31784 4.8928-0.1273 0.82622-1.3932 0.65873-1.9075 1.3755-0.31192 0.39003-0.451 1.0926-0.36398 1.598 0.17924 1.0926 1.4275 1.0233 2.1964 1.4276 2.0519 1.0262 3.9015 2.5379 5.0746 4.6123 0.42199 0.68831 0.60664 1.656 1.208 2.2455 0.60132 0.61551 1.7394 0.61551 1.9188 1.7229 0.0871 0.43618 0.87299 0.58948 1.2198 0.33795 1.0689-0.87004 0.94224-2.5373 0.19633-3.4505-0.49124-0.47704-0.95408-1.1215-0.95408-1.653-0.0804-2.2716-0.75696-4.4016-1.9762-6.3666-0.7688-1.0778-2.0868-1.6531-2.8841-2.6474-0.0982-0.22546-0.36457-0.5895-0.16815-0.86944 0.26632-0.53504 0.83806-0.89901 0.96536-1.5288 0.1102-1.1648-1.208-1.5986-1.514-2.7344 0-0.0545-0.36458 0-0.58948 0l0.64692 0.19633c-1.092-0.46224-2.468-0.25112-2.751 0.84104zm-6.3636-3.9098c0.335 0.57231 1.0926 0.68476 1.6412 1.0488 0.61848 0.52026 0.9132 1.2778 1.4565 1.5986 1.0926 0.61788 0.67649-1.2316 1.1908-1.8496 0.19634-0.11305 0.77473 0.0982 0.91321-0.11305 0.64749-0.89608-0.13839-2.2976-0.94221-3.167-0.67058-0.63032-1.1731-1.627-2.1443-2.0058-0.50249-0.11305-0.97654-0.0839-1.2713 0.47703-0.50898 0.78597 0.0127 1.8377-0.36458 2.6355-0.22483 0.42199-0.64689 0.89845-0.4794 1.3755zm1.5548-4.6703c0.22547 0.0285 0.39302 0.11305 0.56047 0.1824 0.16752 0.0431 0.32379 0.0285 0.50901 0.0982zm33.523 3.9246c-0.91264-1.121-0.98246-2.355-1.5719-3.2652-0.54333-0.85582-1.8898-0.95405-2.5894-1.9626-0.3521-0.49125 0.28943-1.3323-0.24257-1.7253-0.3059-0.23686-0.62972-0.50305-0.68773-0.77178-0.43324-1.176-0.97654-1.9478-2.0579-2.4941 0.33557-1.3725-0.91324-2.046-2.2017-2.41-0.058-0.0722 0.1273-0.43617 0.1273-0.58947-0.058-0.53444-0.71671-0.68774-1.1618-0.84104-0.17353-0.0982-0.52025 0-0.57823-0.0982-0.65873-0.87001-1.572-1.543-1.8786-2.2857-0.39299-1.234-1.572-1.9336-2.5947-2.6065-0.37582-0.19633-0.69958-1.2488-0.89607-1.2488-0.71674 0-1.6933 0.0551-1.7921-0.75699-0.12667-1.5288-1.3636-2.468-2.4964-3.3925-1.653-1.1908-0.19633-3.7429-0.77476-5.6066-0.15041-0.78599-0.9943-0.78599-1.7341-0.78599-0.26568 0-0.53146-0.24035-0.67589-0.52022-0.64157-1.1476-0.13838-2.439-0.89607-3.5026-1.1618-1.6418-2.4503-2.89-3.7281-4.517-0.72795-0.81203-1.7797-0.68476-2.6929-0.76883-0.26632-0.0431-0.42199-0.19634-0.6593-0.36398-0.335-0.21058-0.43326-0.61848-0.62976-0.94224-0.52022-0.92448-1.6418-1.3293-2.5781-1.7655-1.7394-0.71378-3.6061-0.34979-5.4385-0.60132-1.4625-0.11242-3.0575 0.40483-4.1382 1.3032-1.2772 0.95409-2.7628 1.4566-4.3868 1.7513-0.61848 0.11305 0.23687 0.89905 0 1.3613-0.36458 0.6155-1.2488 1.2742-0.88423 1.8643 0.17892 0.1384-0.32376 0.0431-0.15612 0.25113 0.35277 0.35277 0.97065 0.0839 1.4625 0.0839 0.57174 0.0865 0.78004 0.70195 1.1038 0.98249 0.71671 0.74277 1.5317 1.4595 1.9478 2.3698 0.16751 0.34979-0.49125 1.0085-0.16752 1.3465 0.89547 0.92508 0.72798 1.7513 0.72798 2.8729 0 0.46224 0.97122 0.0285 1.1968 0.18177 1.3175 0.6883 1.566 2.3698 1.202 3.702-0.19634 0.7138-0.1273 1.7371 0.18461 2.3266 0.65933 1.2772 0.79781 3.1268 2.0058 4.0808 0.26568-0.4078 0.58355-0.95408 0.80905-0.89905 1.0517 0.14155 1.0695-0.67352 1.7282-1.0517 1.988-1.3441 3.6411 1.2772 4.1903 2.7912 0.54334 1.5003 0 3.4333 0.67058 4.9218 0.52025 1.4566 1.4447 2.6355 2.8723 3.3635 0.32376 0.1824 0.39362 1.0665 0.68834 1.711 0.1444 0.36401 0.51965 0.85526 1.0807 0.46224 0.32373-0.19633 0.16751-0.89841 0.69898-1.1068 0.43975-0.15548 0.91323 0.13902 1.1796 0.37877 1.2772 1.5838 1.5832 4.849 4.1903 4.6526-0.0519 0.39301 0.22547 0.68773 0.49125 0.786 0.53149 0.16815 0.91323-0.58951 1.2884 0.0982 0.41075 0.58948 0.61851 1.3471 1.1796 1.6388 0.89547 0.28056 1.8667-0.0551 2.7628 0.17036 0.57174 0.16752 1.0636 0.85523 1.4737 1.4275 0.24859 0.39301 0.5605 0.84398 0.92448 1.2228 1.7513 1.7075 2.4219 4.2886 4.5431 5.5918 0.64157 0.43621 1.26 1.263 2.2023 1.0085 0.27772 0 0.0811-0.41901 0.37588-0.47703 0.86643-0.0953 1.3754-0.82624 1.7394-1.3583 0.64157-0.85522 1.6128-1.656 2.7456-2.1733 0.0158-0.0545 0-0.37819 0.0158-0.42139 0.76883-0.63032 1.7513-0.79784 2.4793-1.4855 0.64752-0.47706 0.29545-1.5838 0-1.9076zm-34.361-43.418c0.44505 0.42199 1.4275-0.0839 1.9075 0.42199 0.47348 0.54568 0.83806 1.4305 1.6643 1.4305 0.52022 0 0.91321-0.28057 0.98246-0.74277 0.13902-1.3755-0.40422-2.9592-1.7394-3.5636-1.2719-0.37819-2.6071-0.37819-3.8666-0.34979-0.82682 0-0.82682 0.95409-0.47997 1.3322 0.41014 0.47706 0.95345 0.95409 1.5317 1.4714zm-28.252-20.538c-0.0693 0-0.19634-0.0551-0.19634-0.15327 0-0.0285 0.1273-0.0982 0.19634-0.14155-0.42142-0.44805-0.90732-0.12445-1.3986-0.22262 0.31781 0.51728 0.79784 0.95349 1.3986 0.51728zm2.2431 41.637c0.1558 0 0.32315-0.16751 0.35219-0.32078 0.0982-0.34979 0.0982-0.61851 0-1.0227-0.0285-0.24035-0.25396-0.24035-0.42202-0.1273-0.24858 0.1273-0.22547 0.5315-0.54334 0.6037 0.0811 0.41904 0.29482 0.81202 0.61317 0.86706zm2.2194-1.8205c0.16752 0.1824 0.65873-0.1824 0.86646-0.35274 0.1273 0 0.058-0.3059 0.058-0.4883 0.19634 0.0693 0.27772 0 0.27772-0.1824 0.16752-0.27993 0.0865-0.64689-0.27772-0.77118-0.22546-0.0839-0.53146 0.3059-0.81494 0.0694-0.0579 0 0.058-0.15326 0-0.26568-0.2546-0.19633-0.61851-0.36458-0.79784-0.16752-0.335 0.27994-0.335 0.79724-0.18462 1.121 0.18462 0.335 0.53146 0.68479 0.87296 1.0375zm-1.2198-2.3698c0.34684-0.19633 0.0222-0.46224 0-0.67355-0.17353-0.46224-0.43915-0.89547-0.75699-0.60369-0.31255 0.17036-0.53799 0.89844-0.0871 1.1648 0.16752 0.12667 0.53207 0.29482 0.84398 0.11242zm-3.9305-1.7395c0.26632 0.17037-0.36401 0.0573-0.1786 0.32376 0.50249 0.68774 1.3867 1.0369 2.0052 0.84043 0.30653-0.21058 0.68773-0.84043 0.36458-1.0517-0.50901-0.32078-1.2198-0.11242-1.8673-0.11242zm-0.97657-0.29482c0.12129 0.4072 0.50309-0.13901 0.61256-0.63032 0-0.0127 0.0462-0.0833 0.058-0.1273 0.0693 0.058 0.13839 0.11305 0.19634 0.17036-0.0285-0.0836-0.1102-0.17036-0.16752-0.25396-0.38171-0.47703-1.0813-0.85583-1.4743-0.39004-0.43323 0.51727 0.50901 0.51727 0.77476 1.2311zm1.0636-2.0176c-0.0871 0.4078 0 0.69958 0.23687 0.92508 0.21438 0.0694 0.36397 0 0.4338-0.13838-0.21945-0.15612-0.21945-0.28057-0.21945-0.53504 0.0804-0.58948-0.3699 0-0.45097-0.25144zm-2.7048-0.12667c0.0573 0.12667 0.33497 0.26569 0.47348 0.11242 0.18525-0.1824 0.31255-0.43326 0.18525-0.786v0.14155c-0.16751-0.29481 0.20774-0.72798-0.18525-0.99667-0.13838-0.0551-0.364-0.1102-0.4161 0-0.53738 0.49124-0.0573 0.99667-0.0573 1.5288zm-7.5023-9.5052c0.1273 0.0431 0.38114 0.0431 0.50249 0 0.058-0.0285 0-0.1824 0-0.32075 0-0.89905-0.90731-1.15-1.6643-1.234 0 0.1824-0.0693 0.61551 0.0693 0.65873 0.45102 0.22262 0.57231 0.57529 1.0926 0.89604zm2.0342 2.4823c-0.46224 0.2112 0.058 0.89607 0.52025 1.2748-0.0865-0.58947 0.68238-1.7951-0.52025-1.2748zm1.9365-4.1353c0.75699 1.3323 2.1153 1.624 3.3635 2.075 0.22546-0.67354-0.1444-0.99728-0.54863-1.3613-0.88483-0.71377-1.7921-0.79781-2.8149-0.71376zm-8.5659-12.421c-0.91323-1.7253-2.329-3.2978-1.9537-5.4965 2.6124 0.92445 4.9532 0.47643 7.5426-0.34979 1.9366-0.53504 4.1501 0.39001 6.0286-0.815 0.24257-0.21122 0.0158-0.8558 0.0158-1.3322-2.1615 0.99667-3.9707-1.8496-5.9185-0.60132-2.5373 1.598-5.271 1.991-7.7391 2.6355-2.0058 0.46284-7.2076 0.11305-7.4443 3.0835 2.7799 0.0285 5.8605 0.2375 7.5828 2.7338 0.2546 0.30938 1.237 0.14186 1.8845 0.14186zm19.692 32.679c-0.5611 0.79722-0.3356 1.8347 0.22484 2.0602 0.81497 0.33497 1.9945 0.28057 3.0173 0.1824 0.54331-0.0982 0.89604-0.67355 1.202-1.2198 0.54922-0.84103 1.9768-0.35276 3.0462-0.73096-0.16752 0.66171 0.3059 0.58951 0.67057 0.86944-0.0408-0.72798-0.0408-1.7223-0.52022-2.0602-0.96533-0.57529-1.0233-1.4163-1.5258-2.3118-0.1102-0.3097-0.6593 0.15264-0.6593 0.3059 0.1102 1.5027-1.15 1.234-2.1733 1.627-0.0402 0.0982 0.058 0.37879-0.0402 0.49124 0 0.0551-0.15643 0.0551-0.32376 0-0.18461-0.21058-0.32376-0.29482-0.29481-0.62972-0.52026 0-1.2482 0-1.4566 0.33497-0.29481 0.52025-0.82621 0.61851-1.1671 1.0813zm7.7681-2.7628c0.77415 0.44745 1.2885 1.092 1.5312 1.7655 0.36461 0.89841-0.29482 2.0602 0.30653 2.9592 0.1102 0.3788 0.49121 0.64454 0.64749 0.84104 0.37582 0.43323-0.019 1.234 0.10956 1.7803 0.33558 1.1902 0.42199 2.2857 0.57232 3.4215 0.46223-0.0982 0.46223 0.7138 1.0517 0.51731 0 0.70191 0.34149 1.234 0.43975 1.9217 0.19665 0.77177 1.1038 0.3788 1.6069 0.92448 0.80316 1.1216 1.5601 2.2431 2.7509 3.0291 0.36401 0.23686 0.91324 0.23686 1.1097 0.57468 0.0982 0.15327 0 0.41905 0.19063 0.41905 1.5897 0.26632 3.8151 1.0955 3.0285 3.0291 0.5895-0.43384 1.3181-0.7576 1.5146-1.4305 0.32376-1.1908 0.57827-2.4799 0.058-3.6446-0.30653-0.60369-1.1908-0.91026-1.376-1.5832-0.14979-0.49182 0-0.93927 0.019-1.3181 0.0402-0.68773-0.92508-0.44802-1.0926-0.77178-0.38174-0.82621-0.68773-2.2277 0.92508-2.1034 0.0516 0-0.2432-0.29482-0.15611-0.58713-0.54929 0-1.0518 0.096-1.572 0-0.36458-0.0431-0.36458-0.57469-0.36458-0.74515-0.16752-0.88186 0.29482-1.9886-0.49124-2.6071-0.68182-0.41901-1.566-0.54628-2.2538-1.0227-0.57827-0.47702-1.0636-0.84103-1.7223-1.2198-0.41078-0.26568-1.1275 0.37877-1.4335 0-1.3293-1.4856-2.2715-3.225-3.5026-4.9071-0.48001-0.5315-1.4335-0.52025-2.2887-0.39299-0.2375 0.058-0.1102 0.32373-0.16815 0.46224 0.1159 0 0.2546 0 0.33557 0.0579 0.28278 0.13839 0.0982 0.48827 0.22547 0.63033zm18.536 33.687c-0.19633-0.0982-0.53206-0.0253-0.79781-0.0253 0.36458 0.16752 0.36458 0.92448 0.93632 0.812-0.0285-0.0982-0.0982-0.1824-0.0982-0.37877-0.0402-0.11241 0.0693-0.32376-0.0402-0.4078zm-2.5781 4.208c-0.58947 0.81203 1.0233 0.81203 1.6649 0.47706 0.0285 0 0.0158-0.0982 0-0.15643 0.058-0.16752 0-0.25144-0.1273-0.32075-0.61256-0.3788-1.3696-0.3097-1.5376 0zm-12.45 1.9478c0.0519 0.99433 1.1505 0.50546 1.711 0.16751-0.36397 0.14155-0.0871-0.32078-0.36397-0.34975-0.49125-0.0836-0.88426 0.1824-1.3471 0.1824zm8.8725-8.4268c-0.36458 0.50543-1.0813 0.27994-1.7513 0.50543-0.33558 0.0839-0.31255 0.77178-0.13902 0.98249 0.64157 0.92505 1.4163 0.39001 2.3118 0.19634-0.25397 0.33557 0.22547 0.28056 0.34685 0.39 0.41074 0.28057 0.58947-0.69897 0.98306-0.39 0.11558 0.1102 0.11558 0.67054 0 0.72855-0.59008 0.30907-0.59008 0.89547-1.1044 1.1358-0.34092 0.23687-1.0115 0.23687-1.3175-0.40777-0.0462-0.0836-0.32373 0-0.49125 0h0.16752c-0.2546 0.43383 0 1.1908-0.2546 1.4015-1.0227 0.91323-3.3061 1.627-2.3005 3.0001 0.75756 1.0257 2.468 0.73096 3.8553 0.61848 0.15612 0 0.34093-0.25143 0.29482-0.39298-0.13838-1.2891 0.56047-1.5146 1.4163-2.1591 0.35217-0.29481-0.26568-0.70195-0.67054-1.0665-0.38177-0.18177 0.0127-0.96767 0.40479-0.96767 0.5315-0.0253 0.5315-0.69958 1.0115-0.54628v-0.85582c0.81437 0.0982 1.4968-0.46224 1.3293-1.1612-0.26631-0.92508-1.1044-1.7253-0.79781-2.7196 0.058-0.36695 0.35277-0.75699 0.89607-0.89901 0.26569-0.0693 0.41015-0.4072 0.19634-0.58951-0.1273-0.10957-0.29482-0.0551-0.44508-0.0551 0 0.32376-0.50898 0.19633-0.36458 0.46284-0.88422 0.18177-1.7394 0-2.5142 0.47646-0.89547 0.4338-0.53146 1.5986-1.063 2.3124zm-76.155-13.935c0.98249 0.49125 2.1733 0.49125 3.2132 0.53444 0.17923 0 0.7688-0.61848 0.46281-1.0517-0.57824-0.44802-1.4743-0.0697-1.9945-0.75757l-0.49124-0.0982c-0.85523-0.26569-1.0748 0.51727-1.5548 0.96827-0.22483 0.32078 0.33558 0.40483 0.36458 0.40483zm29.835 18.955c-0.0982 0.39301-0.19633 0.88426 0.32376 0.96827 0.64157 0.18176 0.64157-0.82682 0.31781-1.0375-0.19063-0.14155-0.56047-0.22546-0.64157 0.0694zm12.773 8.2451c0.89607-1.1648 2.1733-1.9217 3.5428-2.5663 0.0982 0 0-0.29481 0-0.46224-0.0523 0.11242-0.0982 0.21059-0.16752 0.3782-0.27771-0.6327-0.73982-1.0807-1.3293-1.3755-0.0462 0.5605-0.67649 0.93926-0.94221 1.1648-0.69961 0.52025-1.5661 1.092-1.8786 1.8235-0.23687 0.60072-0.36401 1.5548 0.1273 1.933 0.30653 0.19633 0.46224-0.58948 0.64749-0.89547zm-3.0463-5.5664c0.84398-0.1558 1.601-0.14155 2.468-0.0431v-0.16752c-0.0693-1.3873-1.4447-1.234-2.2135-0.68774-0.0693 0 0 0.21059 0 0.21059-0.29482 0.14218-0.65873-0.0545-0.82625 0.0693-0.32372 0.4078 0.1786 0.78656 0.57175 0.61848zm15.617 0.68536c-0.24859 0-0.51433 0-0.78008-0.0127-0.0285 0-0.058 0-0.0871 0.0127zm-7.2307-1.8353c-0.4794-1.5288-1.6992-0.0693-2.6817-0.25144-0.41607-0.0431-0.61256-0.57468-0.8499-0.57468-0.3699 0.0693-0.70487 0.12445-0.95345 0.37819-0.65876 0.3788-0.15612 1.3873 0.5143 1.26 0.52022 0 0.87298-0.72798 1.0985-0.28057 0.50249 0.8298 0.16752 2.2431 1.4388 1.9508 0.82681-0.19634 1.3352-0.786 2.2313-0.86944 0.88426-0.0437 0.98246-1.0085 0.88426-1.682 0.92505-0.11305 2.017-0.87004 2.6065-0.11305 0.28341 0.26631 0.36461 0.841 0.5895 1.1908 0.27772 0.6327 0.91321 0.786 1.5725 0.81501 0.80908-0.19634 1.6353-0.1273 2.2538-0.81501 0.64749-0.79781 0.58947-1.7655-0.23687-2.3118-0.335-0.22547-0.92508 0.0693-1.26-0.22547-0.68773-0.37879-1.1961-0.96827-1.8844-1.234-2.4213-0.64454-3.8666 1.4595-5.3231 2.7628zm42.574 25.74c-0.32376 0.58653 0.41015 1.0523 0.90139 0.79784 0.4859-0.21122 0.79781-1.0375 0.36458-1.1618-0.36458-0.1824-1.0405-0.1824-1.266 0.36398zm6.9992-14.889c-0.57823-0.0839-0.77475 0.0982-0.97124 0.41904-0.13839 0.54628 0.07 1.1938-0.13839 1.7803-1.3465 3.7452-5.664 7.1378-3.6298 11.343 0 0.0693 0.30653 0.0693 0.36395 0 1.2027-0.81199 1.9194-1.9217 2.5663-3.0983 1.231-2.5805 2.3236-5.2302 3.1794-8.1723 0.1444-0.89905-0.17923-2.1591-1.3702-2.2715zm-19.137 97.826c-0.39295 0.68772-0.29481 1.5436 0.37582 2.0058-0.0127-0.61849 1.1387-1.3755 0.29482-2.0058-0.30653-0.32373-0.53206-0.12731-0.67057 0zm-3.0173-42.424c-0.62972 0.35277-0.75699 1.8673 0.23718 1.8673 0.41018 0 0.85523-0.32376 1.1962-0.5895 0.36458-0.42199 0.31781-0.99431-0.11558-1.1216-0.44508-0.15611-0.95346-0.39302-1.318-0.15611zm12.618 18.253c-0.42199-0.13838-1.2198-0.13838-1.2198 0-0.95348 4.127-4.7626 9.8319-0.20773 12.595 2.0052 1.2594 4.485-1.237 4.791-2.5379 0.75759-3.1149 0.41075-8.2013-3.3635-10.057zm-0.22547-42.644c-0.2888 0.69958 0.97125 0.84104 1.5891 1.0636 0.7576 0.22546 1.9999 0.11305 2.2142-0.58653 0.34678-1.2482-1.0405-2.5254-2.3698-2.3698-1.1387 0.0982-1.0523 1.0636-1.4335 1.8928zm-39.91 26.633c0.32376 1.3068 1.7803 0.68834 1.9366-0.21946 0-0.63564-0.8842-0.63564-1.1677-0.15547 0.0694-0.11021 0.1273-0.28342 0.22547-0.43385-0.37586 0.32376-1.1097 0.32376-0.99434 0.80909zm-3.2422 2.948c0.17354 0 0.0462-0.79783-0.1102-0.84397-0.73982-0.15043-1.3755 0.63033-2.1556 0.36397 0 0.32374-0.075 0.53206-0.2432 0.71675-0.0693 0.07-0.3178 0.0408-0.50248 0.0408 0.815 0.99962 2.1153 0.0285 3.0114-0.27773zm-8.618 0.78598c-0.11527-0.0285-0.23687-0.19634-0.15549-0.26569-0.43386 0-0.88486-0.28341-1.4051-0.1444-0.13838 0-0.51433-0.0982-0.76823-0.0982-0.0697 0.42199-0.20837 0.99965 0.29481 1.15 0.72799 0.058 1.4737 0.058 2.0342-0.64156zm-4.9645-2.526c0.50248-0.10957 0.18461-0.62976-0.058-0.95349-0.16752-0.16751-0.57231-0.25459-0.63033-0.10956-0.36401 0.58947 0 1.3293 0.68831 1.063zm-0.7398 2.4396c0 0.0573 0.31781 0.0865 0.40423 0 0.52025-0.39298 0.57234-1.0813 0.30653-1.4974-0.19633-0.35213-0.95405-0.35213-1.0233 0.17923-0.13838 0.46224 0.0693 0.92507 0.31255 1.3181zm-5.0521-15.941c-0.3178 0.11242-0.26568-0.29482-0.3178-0.36398-0.29482-0.3097-0.60667-0.3097-0.71675-0.7428-0.31191-0.61551-0.82621 0.43326-1.4447 0.3788-0.0693 0-0.22547 0.21058-0.13839 0.43323 0.54334 0.71674-0.0871 1.0115-0.53206 1.5288-0.28278 0.57529 0.56047 0.61848 0.7398 1.205 0.28341 0.67352-0.451 1.2482-0.29482 1.9768-0.17923 0.18462-0.44508 0.52022-0.82622 1.1097-0.0982 0.0839-0.42195 0.67352-0.26631 0.93926 0.54922 0.64455 1.5258-0.64451 2.1159-0.74277 0.53149 0 0.61848 0 1.0689-0.32376 0.61259-0.36398 1.2021-0.58947 1.4276-1.2742 0.0871-0.2546-0.98249-0.36696-1.3062-0.40781 0.49125-1.2192-0.19633-1.5832 0.0285-2.9154 0-0.0437 0.63033-0.80079 0.46224-0.80079zm48.666 32.009c0.0693-0.0402 0.0127-0.15611 0-0.21375-0.0158 0.15549-0.19633 0.26569-0.34086 0.21375 0.1444 0 0.3237 0.0519 0.34086 0zm-53.024-12.322c0.0402 0.0127 0.0693 0 0.1102 0.0127 0.0285 0 0.0693 0 0.0982-0.0127zm-11.242-46.687c0.0522 0.88423-0.42199 1.7253-0.21375 2.5515 0.13838 0.49124 0.81497 0.3356 0.91323 0 0.26569-0.77118 0-1.4589 0.61848-1.9762-0.21438-0.0697-0.48-0.37877-0.48 0.19633 0.058-0.19633 0.23687-0.36458 0.1273-0.54628-0.26568-0.29483-0.58947-0.22547-0.96529-0.22547zm1.6933 2.3698c-0.47351 0.29481-0.37525 1.205 0.1159 1.569 0.53149 0.26569 1.2311 0.15612 1.5081-0.50248 0.19633-0.54923 0.54923-1.3322 0-1.7258-0.65873-0.46224-0.97657 0.28057-1.6241 0.65934zm2.6355-1.7945c0.38174-0.34978 0-0.841-0.3059-1.0375-0.33557-0.29482-0.98246-0.14218-1.4856 0-0.1273 0.0693-0.28278-0.0982-0.46223-0.14218-0.1273 0.4078 0.26568 0.60429 0.46223 0.60429 0.69958 0 1.2891 0.96827 1.7916 0.57529zm-2.017-6.4216c-0.36401 0.95344 1.3755 2.1443 2.2425 1.5838 0.68773-0.41901 0.37585-1.6388-0.29482-1.9916-0.62972-0.33497-1.7223-0.18176-1.9478 0.40781zm8.9991-22.206c0.13902-0.14155 0.65933-0.54568 0.23718-0.89844-0.34684-0.32079-0.92508-0.32079-1.0926-0.16752-0.40483 0.44745 0.23687 1.485 0.85522 1.0659zm-2.9415 1.1358c0.22484-0.56047 1.15-0.67295 1.0227-1.2772-0.0693-0.2657-0.65873-0.2657-0.9132-0.2657-0.42203 0.0285-0.33501 0.6185-0.33501 1.1358-0.16751-0.0431-0.30653 0-0.30653 0.14155 0 0.26568 0.44508 0.36402 0.53206 0.26568zm-95.223 58.726c0.57767-0.29481 1.3754-0.51728 0.98246-1.4015 0-0.0551-0.13838 0-0.26568 0-0.92505-0.54629-2.133-0.33558-1.9247 0.77178 0.0285 0.49125 0.63564 1.0085 1.208 0.62972zm-5.7623-0.0253c0.19665-0.32376-0.22546-0.5605-0.48-0.85524-0.36398-0.3097-0.79781 0.0833-1.0748-0.3097 0 0.3097-0.0871 0.7138 0.12667 0.95408 0.24858 0.4072 0.94816 0.72798 1.4281 0.21058zm98.597-32.049c-0.5605-0.29482-0.97657 0.0693-0.5605 0.57469 0.21375 0.26631 0.85526 0.0982 1.237 0.1102-0.19634-0.22262-0.31192-0.5605-0.6765-0.6848zm20.137 10.401c0.12128-0.0839 0.23686-0.91029 0-1.205-0.2546-0.1824-0.80374 0-1.2488-0.11305-0.54866-0.22262-0.73391-0.69898-0.84338-1.2885 0-0.74278-0.69958-1.2748-0.50309-2.104-0.92447 0.42199-0.87298 1.4447-0.57823 1.8928 0.81497 1.2488 1.376 3.2108 3.1735 2.8178zm-15.241 22.166c1.1908-0.51728 0.57234-1.682 0.73982-2.7048-1.2429 0.53149-1.9016 1.4157-2.0981 2.7048 0.47405 0 0.93629 0.16751 1.3583 0zm-3.8956-10.907c1.1618 1.3873 4.1501 0.92505 3.8263-0.4072-0.35276-1.1618-2.3295-1.8206-3.676-1.4305-0.85582 0.26885 1.514 1.2482-0.15042 1.8377zm11.103-12.646c-0.52022 0.1824-1.0985 0.32376-1.3642 0.68773-0.21945 0.53207-0.30653 1.4015 0 1.8928 0.16752 0.2375 0.99966 0.28057 1.2192 0 0.39359-0.42139-0.13838-0.93869-0.58358-1.1932 0.4451-0.39004 0.89607-0.69958 0.72858-1.3873zm-15.045 9.0139c1.3867-0.44802 3.1096-0.82681 4.739-0.82681 3.6707-0.0836 3.4623-4.7508 5.3409-7.7101 0.40479-0.72855-0.22547-2.3556-0.74572-3.1267-1.2424-2.0029-5.1438 0.27993-6.0281-1.8353-0.5149-1.1938 2.6237 0.75696 2.9184-1.1097 0.058-0.4883-0.23686-1.1068-0.61848-1.289-0.50249-0.29482-1.485-0.34979-1.878 0-1.9768 1.656-2.3414 4.514-3.3528 6.3926-2.0975 3.6328-5.8718 6.2535-7.8776 10.305-0.32373 0.60426 0.1444 1.0925 0.64748 1.318 2.745 0.92448 4.6236-1.6418 6.8549-2.1182zm-84.385 42.889c-0.13902 1.5264 0.46223 2.5491 2.0052 2.7574 0.18525-1.6128-0.43326-2.5491-2.0052-2.7574zm-2.4508-3.3233c-0.48004 0.85583 0.56043 1.7803 1.8092 1.8904 0-0.42199 0.14978-0.93632-0.0697-1.26-0.43915-0.58949-1.514-1.1097-1.7394-0.63033zm-5.4966-5.5545c-0.15611 0.0871-0.20836 0.88482 0 1.0926 0.23687 0.26568 0.88423 0.16752 1.26 0.16752-0.27772-0.64157-0.2375-1.7916-1.26-1.2601zm53.221-20.844c0.19633-0.49122 0.62975-0.99726-0.17354-1.4885-0.15041-0.0551-0.5433-0.0551-0.78064-0.0551 0 0.74277 0.43383 1.3322 0.95405 1.5436zm-2.1904-6.1842c-0.1102 0.64393 0 1.0659 0.43323 1.205 0.21375 0.0573 0.61852 0.1555 0.61852-0.139 0.058-0.39302 0.3059-0.77118 0.058-1.121-0.058-0.058-0.23719 0-0.28342 0-0.39302-0.21122-0.54337 0.34979-0.82628 0.0551zm0.87242-7.471c0.17923-0.15548 0.56047-0.47642 0.47405-0.89841 0.32376 0.0579 0.67057 0 0.89607-0.37881 0.21375-0.16752-0.22547-0.40719-0.1102-0.65872-0.69958-0.19633-1.179 0.49124-1.7223 0.98248-0.49124 0.47704 0.17924 1.1618 0.46224 0.95345zm-3.4908-5.0887c0-0.19633-0.32376-0.19633-0.39301-0.17036-0.50901 0.17036-0.64749 0.57468-0.72859 1.0375-0.1444 0.67291 0.0811 1.3062 0.54334 1.8087 0.21375 0.28057 0.57826-0.0545 0.72855-0.50249 0.31192-0.68773-0.0982-1.4305-0.15041-2.1733zm2.5083 6.6873c0-1.2778-1.1387-1.6708-1.9768-0.89902-1.0807 0.89902 0.17923 2.5231 0.9943 3.6878 0.1273 0.27992 0.27771 0.65873 0.45103 0.96767 0.39295 0.41904 1.1499 0.26631 1.3985-0.21058 0.19634-0.43384 0.35274-0.58951 0.58948-1.0233 0.32376-0.89842-0.19634-2.5225-1.4565-2.5225zm-1.9768-3.283c0.1273 0.30907 0.26568 0.52025 0.39298 0.84398 0.23718 0.68479 1.3583 0.36401 1.7631-0.11305 0.0573-0.26568 0-0.73093-0.30654-0.98246-0.3059-0.34979-0.81497-0.29482-1.0807-0.47703-0.20836-0.0545-0.43323-0.29481-0.58947-0.22261-0.24859 0.22261-0.24859 0.63032-0.17924 0.95111zm1.6418-7.3319c-0.46281-0.32078-0.84398-0.0839-1.1506 0.23972-0.31192 0.32078-0.36401 0.72858-0.15548 0.98011 0.22483 0.39299 0.46224 0.85522 0.50248 1.2482 0 0.841-0.20773 1.656-0.0693 2.552 0.19634 0.67295 0.98246 1.8637 1.4163 1.0807 0.49124-0.87001 1.2482-2.1733 0.6587-3.2256-0.47409-0.98246-0.16752-2.2709-1.2021-2.8752zm35.1 2.02c1.0695-0.1273 0.88423 0.81203 1.2488 1.4015 0 0.0285 0.28278 0.0285 0.43326 0 1.6128-1.7394 2.6242-3.7855 3.0285-6.1813 0-0.1824 0.451-0.39299 0.451-0.47703-0.23687-1.0807-1.4045-1.4447-1.9188-2.355-0.60724 1.598-2.2313 0.29482-3.4505 1.0778-0.019 0.0285-0.1159 0.46224 0.20774 0.58947 0.43383 0.21122 1.0695 0.0158 1.208 0.34979 0.29481 0.42199 0.29481 1.1648-0.13839 1.6963-0.058 0.1273-0.41075 0.0982-0.41075 0-0.62972-1.234-1.6412-1.0636-2.774-1.0636 0.47405 0.40483-0.364 0.29229-0.16751 0.53207-1.5719-0.42199-3.0865 0.335-4.601 0.47645-0.46224 0.0551-1.0636-0.30906-1.4678-0.71614-0.54922 0.57469-1.1967 1.7104-2.0519 1.3897-0.2888-0.1273-0.78008-0.81497-0.46224-0.98246 0.87238-0.5173 1.6412-1.1216 2.0519-1.962 0.335-0.68834 0-1.5003 0.37525-2.1881 0.45099-0.8955 1.1618-1.7365 2.0058-1.6672 0.95349 0 2.7048 0.841 3.5026-0.19634 0.29482-0.26568 0.88423 0.57526 1.237 0.96827 0.1273 0.12446-0.0693 0.33497-0.21375 0.50248-0.57234 0.57526-1.4684 0.63327-1.8212 1.4885-0.26568 0.58653 0.07 1.0926 0.52026 1.2453 0.72855 0.33854 0.95408-0.65873 1.3009-1.1618 0.41015-0.49125 0.84338-0.0836 1.2364 0 0-0.1558-0.0402-0.37823 0-0.37823 0.85582-0.2546 1.8212-0.11305 2.7166-0.11305 1.0523 0 0.49124-2.1443 0.39298-3.4215 0-0.27993-0.0285-0.64455 0-0.95349 0-0.15327 0-0.33557 0.0982-0.48827 0.31255-0.70253 1.6708-0.89902 1.8786-0.15611 0.0285 0.26569 0.0871 0.49124 0.15611 0.71674 0.0693 0.37876 0.2546 0.60132 0.72796 0.37876 0.1159-0.0728 0.2546-0.18525 0.28341-0.37876 0.17924-0.4078 0.0982-1.0665 0.36401-1.292 0.40483-0.41904 0.97654 0.63326 1.6359 0.73154 0.65873 0.15262 1.3926 0.15262 1.936-0.22547 0.46221-0.28057 0.46221-0.82682 0.0694-1.3755-0.15041-0.25144-0.53149-0.29229-0.61259-0.1824-0.60664 0.6327-1.3926 0.47702-2.0519 0.47702-0.61256 0-0.90732-0.75756-1.4276-1.1215-0.57171-0.40482-1.2884 0.42199-1.965 0.14155-0.62972-0.29481-0.94816-0.91323-0.58355-1.4998 0.15042-0.27993 0.58355-0.56047 0.95348-0.77178 0.78005-0.39298 1.682-0.39298 2.1153-1.0659 0.33557-0.60132 0.54331-1.347 0.58951-2.0318 0.0408-0.3788 0.41604-0.3788 0.63029-0.42199 0.91324-0.32078 1.9478-0.0982 2.745-0.49125 0.91323-0.34979 1.6128-1.1328 2.5088-1.7513 0.43916-0.23687 0.85522-0.50543 1.3636-0.6155 0.24859-0.0722 0.39302-0.50547 0.44508-0.68774 0.18525-1.5288-0.23687-2.9451 0-4.5573 0.1159-0.41904 0.75756-0.68479 0.43975-1.1506-0.0982-0.16752-0.73447 0.11305-0.88483-0.0982-0.35213-0.29165-0.65873-0.89547-0.1444-1.2192 0.39299-0.34979 1.2488-0.0409 1.5436-0.58653 0.52022-0.73153 0.25397-2.104-0.57234-2.3698-0.82682-0.42199-1.7513 0.34979-2.7048 0.15326 0.10957 0.36398-0.39298 0.49122-0.53206 0.49122-1.179 0.39301-1.2772-1.0665-1.0689-1.8643 0-0.16751 0.11559-0.26568 0.23687-0.21058 0.28278 0.0431 0.34092-0.34979 0.39298-0.68774-0.26568 0-0.60132-0.0253-0.83806 0-1.0405 0.52022-1.5027 1.627-2.5373 2.1585-0.1273 0.11305-0.1273 0.3097-0.0462 0.47706 0.0462 0.1273 0.19633 0.32372 0.35213 0.25396 0 0.65933 0.21439 1.7513-0.91323 1.4856-0.0982-0.0431-0.0982-0.27993-0.1786-0.30907-0.28342-0.21121-0.92505-0.36458-1.0807 0-0.17923 0.74278 1.3346 1.0807 0.97065 1.8235-0.58948 1.0375-2.023 1.234-3.2019 1.7945-2.4621 0.9653-5.0171-0.14155-7.6349 0.41902-1.376 0.26568-2.7805 0.0839-4.2252-0.30654-1.0233-0.19633-1.2198 0.69958-1.7513 1.3873-0.0402-0.1273-0.1102-0.26568-0.29481-0.21058-0.0693-0.5321 0.2546-0.93927 0.1273-1.4856-0.058-0.42199-0.72859-0.36401-0.88423-0.71674-1.7111-3.222-5.8612-2.8178-9.011-2.2828-0.58951 0.0545-0.81501 0.65873-1.1962 1.0227-0.64153 0.57526-1.5264-0.0833-2.2254 0.37876-0.31255 0.19634-0.43384 0.64455-0.69955 0.69898-0.95349 0.26917-1.965-0.69898-2.78-0.19633-0.5433 0.46578-1.2198 0.53504-1.7915 0.80079-0.19696 0.15326-0.19696 0.58947-0.26631 0.96827 0 0.27993-0.47941 0.20773-0.62973 0.20773-0.88419 0.28057-2.1904-0.18177-2.3585 1.0807h0.32373c0.34684 1.0091-0.15549 2.1443-1.1097 2.5379-1.092 0.3782-2.2999 0.29482-3.3753 0.72799-0.52025 0.1824-1.2192 0.68773-1.4157 1.1648-1.711 3.0285-3.341 6.1411-3.4505 9.6176v0.3782c0 0.22546 0.36397 0.4338 0.36397 0.51727-1.6702 3.5896-2.7918 5.4131-4.7396 8.8464-0.79784 1.3897-1.7513 4.7827-0.32376 5.9327 0.71675 0.58653-0.39298 2.0029-1.4275 2.0721-1.3181 0.058-3.0865-0.26568-3.5606-1.7081-0.23687-0.61848-1.3346-0.73096-2.1733-0.84103h0.1102l-0.62973-0.0722c-0.98309 0-2.0348-0.20774-2.861 0.0722-1.4974 0.39061-1.6128 2.1449-2.2834 3.3351-0.46223 1.0665-2.1845 0.80075-2.6935 1.8093-0.24858 0.43327 0.2432 1.1648-0.13838 1.7945-0.26569 0.41902-0.84401 0.41902-0.99434 0.89607-0.0982 0.26885-0.16751 0.64749-0.33497 0.89842-0.38174 1.3873-0.64748 2.6503-0.32376 4.0228 0.0285 0.39298 0.0285 0.80078 0.13839 1.0665 0.35273 1.4447-0.10957 2.6906-0.73983 3.8695-0.94164 1.3583-2.5947 1.3583-4.1092 1.8353-0.62972 0.27994-1.4045-0.37877-2.1733-0.20836-1.7282 0.32078-3.4102-0.40717-5.0455 0.15327-0.0982 0.0551-0.42199 0.26568-0.5605 0.39301-0.84398 0.33497-1.1387-0.60429-1.6128-1.0115-0.50844-0.50305-0.56053-1.3873-1.0808-1.653-0.99433-0.47702-2.3585 0.0693-3.0575 1.0665 0.46224-0.058-0.0127 0.5315 0.35213 0.5315-1.092 0.0551-1.9247 1.0085-2.7628 1.4015-1.1097 0.6043-1.3577-1.3465-1.456-2.5082-0.1159-0.58951-1.0523-0.96827-1.8963-0.53447-0.13838 0.17036-0.32316 0.30906-0.32316 0.61851-0.2546 0-0.46281-0.3097-0.69955-0.0839-0.74575 0.82682 0.57235 0.72856 0.9653 1.2198 0.25397 0.23687-0.0693 0.5315-0.34681 0.72799-0.38175 0.3097-0.95409-0.32078-1.0115 0-0.18525 0.56047-0.52022 0.85522-0.9653 0.68774 0 0.16751-0.075 0.21121 0 0.32078 0 0.15612 0.12129 0.26885 0.27772 0.15612-0.42199 0.16751-0.83806 0.43323-1.1506 0.19633-0.39298-0.19633-0.26568-0.84104-0.39298-1.3613-0.0804-0.11241-0.5143 0-0.5143 0.16752-0.1444 0.84103 0.0811 1.1097-0.83217 1.1648 0.0982 0.3097-0.23686 0.84104 0.21375 0.92746 0.47409 0.2375 1.0523-0.29768 1.4737 0 0.67057 0.68241 0.58418 1.7513 0.78068 2.7166 0 0.058-0.19634 0.1273-0.29482 0.1273 0.18462 0.50308 0.29482 1.7803-0.43383 1.2311-0.88423-0.51433 0.13901-1.7915-0.37525-2.5894-0.0982-0.15549-0.63033-0.0573-1.0523-0.0573 0.52028 1.2884-0.60664 2.6468 0.52028 3.8837 0.43381 0.5605-1.3352 1.3181-0.68776 1.988 0.37582 0.38174 1.0346 0.75759 1.595 0.87299 0.31255 0.0285 0-0.64749 0.0982-0.87299 0.0982-0.29482 1.0233-0.61256 1.2198-0.19633 0.0982 0.28341 0.23687 0.63032 0.23687 1.0695-0.43326-0.11559-0.87834 0.0982-1.2423 0.26568 0.36397 0.82682-0.17354 1.3992-0.31255 2.2023 0 0.16752 0.26631 0.48532 0.31255 0.69958 0.21945 0.62971 1.2601 0.0573 1.5832 0.57173 0.2375 0.42199-0.4794 0.90197-0.24256 1.4743 0.18525 0.37521 0.80373 0.15548 1.0695 0.47348 0.39299 0.2432 0.24859 0.74572 0.20837 1.2257 0.39298-0.0462 1.0115 0.37522 0.84341 0.89547 0.46281 0.17923 0.56104-0.35216 0.52022-0.6759 1.0346 0.0462 0.61256-0.95408 0.72859-1.7631-0.35277 0.17923-0.32376-0.56046-0.72859-0.26569-0.19633-0.56045 0.0408-1.179-0.19633-1.682-0.28279-0.57768-1.1269-0.7049-1.2482-1.4738 0.71674 0.15643 1.2482-0.0982 1.6933-0.85522 0.2546-0.38174 0.88423 0.16752 1.1387 0.68774 0.1273 0.1273 0.0402 0.27771 0.0402 0.49124 0.64749-0.21375 0.64749 0.44508 0.88423 0.73983 0.53206 0.36398 0.69955 1.0115 1.3009 1.26 0.91323 0.2717 1.8087 0.2717 2.7338 0.0982-0.0811-0.41606 0-0.8499 0.24257-0.9943 0.40482-0.36401 0.61256 0.42199 1.1216 0.46221-0.22547 0.90199 0.23686 1.6418 0.96472 2.0928 0.18525 0.0402 0.49182-0.0697 0.6593 0.0402 0.29482 0.20774 0.42199 0.68774 0.84341 0.82622 0.29545 0.07 0.60132-0.13838 0.85583-0.0982 0.46223 0.0982 0.46223 0.48001 0.54333 0.96533 0.0573 0.0462 0.29482 0.19633 0.29482 0.3699 0.85522-0.17354 1.8087 0.0523 2.046 0.79781 0.43323 1.0926 1.208 1.9478 1.6992 2.9303 0.19633 0.50306 1.0636 0.67058 1.179 1.1216 0.0522 0.37522 0.30653 0.61848 0.44507 0.69898 0.56047 0.64749 1.4044 0.84398 2.2313 1.0523 0.29482 0.10956 0.7682-0.46284 1.2884-0.69958 0.26632-0.0871 0.57232 0.17923 0.61849 0.23686 0.78599 1.2778 0.98245 3.0113 2.2425 3.7453 0.64157 0.37582 0.82682 1.1446 1.4974 1.3299 0.41015 0.0982 0.9014-0.32376 1.3062 0 0.26569 0.19633 0.35214 0.74512 0.56047 0.78597 0.92448 0.43323 1.6531 0.99373 1.8496 2.0052 0.0285 0.15043 0.1273 0.47408 0.38111 0.5321 0.83809 0.0982 1.5376-0.49124 1.9886-0.058 0.61848 0.57824 1.4157 0.84398 1.965 1.4163 0.16752 0.22547 0.63032 0.39299 0.78065 0.22547 0.22483-0.28341 0.11526-0.79781 0.29481-1.0636 0.24257-0.46284 0.85526-0.31255 1.3062-0.46284 0.5605-0.22484 0.61851-1.2772 1.2192-1.3175 1.0405-0.17354 1.4453 1.0926 2.2716 1.5838 0.058 0.0982 0.37582 0.19633 0.49121 0.3059 0.91323 0.49125 0.50309 2.133 1.5838 2.2425 1.2772 0 1.9478 1.1387 3.0865 1.347 0.85522 0.26568 1.537 0.47349 2.3118 0.95349 0.24858 0.16752 0.6877 0.16752 0.98246 0.058 0.48532-0.18525 0.92508-0.41075 1.3181-0.68774 1.0919-0.68833 2.5082-0.74571 3.6121-1.4743 0.24257-0.16752 0.47997-0.47348 0.78597-0.58948 1.8383-0.79723 3.8843 0.69955 5.7913-0.30589 0.46281-0.21439 1.1097-0.21439 1.6708-0.58951 1.15-0.79781 1.4855-2.4278 1.121-3.6878-0.80313-2.0058-1.5027-4.0921-2.9013-5.8315-0.6765-0.85582-1.5838-1.3299-2.3869-2.2023-0.15042-0.2375-0.79778-0.16752-1.179-0.3356-0.75164-0.33497-0.63033-1.2192-0.4859-1.965 0-0.26567-0.815-0.26567-0.95348-0.53145-0.26568-0.47408 0-1.0346 0.0693-1.5146 0.0402-0.22545-0.28278-0.42199-0.335-0.42199-1.0807-0.20772-2.0638-0.69896-3.1557-0.53148-0.35277 0.0462-0.67647-0.33557-0.99434-0.53206-0.19633-0.16752 0.0519-0.5315 0.20837-0.58951 0.62976-0.53147 1.3755-0.90731 2.1615-1.202-0.28341-0.38175-0.31191-0.97125-0.0751-1.1097 0.42196-0.422 0.31192-1.179 0.17354-1.5951 0-0.15611-0.17354-0.50901-0.58951-0.50901 0.0811-1.0227 0.6706-1.8087 0.0811-2.7048-0.64154-0.85522-1.5264-1.3464-1.7513-2.439 0-0.11021-0.53206-0.37586-0.53206-0.54925 0-1.2311 0.37582-2.5894 0.1273-3.8376-0.18525-0.53504-0.786-1.1648-0.32376-1.4885 0.19633-0.15327 0.65873-0.48827 1.0636-0.58653 0.87298-0.32373 1.1677-0.91324 0.72798-1.4998-0.43323-0.60426-1.3175 0-1.959-0.21122-0.29481-0.0833-0.33557-0.29481-0.36397-0.57468-0.15612-0.50604 0.36397-1.3032-0.1159-1.5838-0.39305-0.14155-0.75703-0.53444-0.93635-0.80076-0.41015-0.62972-0.0693-1.3465 0.40482-1.9768-0.27771 0.0285-0.15611-0.49124-0.47408-0.32078-0.0982-0.65873 0.39298-1.4045 0.1102-1.9762-0.20837-0.58951-0.69955-1.3181-1.4275-0.99728-0.07 0 0 0.21122-0.07 0.21122-0.39301 0.37819-0.85522 0.47642-1.2772 0.11241-0.0865-0.11241-0.0865-0.47702 0-0.75699 0.29482-0.36458 0.88423-0.21121 1.2021-0.47702 0.58944-0.6043 0.0751-1.4163-0.20773-1.7394-0.89608-0.78363-1.2772-1.4856-1.0807-2.5923-1.0233-0.14219-2.5953-0.26632-2.5201-1.711 0.0694-1.263-0.22547-2.4248-0.53739-3.7162-0.24858-0.89607-0.19633-1.8353 0.38114-2.4799 0.15612-0.19633 0.33558-0.56047 0.61849-0.58947 1.3181-0.18177 2.9421 0.0982 3.6878-1.15 0.47348-0.89607-0.54922-2.2857 0.24795-2.8729 1.3471-1.0115 3.3641-0.33795 5.0059-1.2772 0.50841-0.3788 0.43323-1.0778 0.28278-1.6382-0.21375-0.6333-0.61848-1.292-0.97121-1.8786-0.5605-0.82976-1.878-0.42199-2.2538-1.3062-0.18525-0.47703-0.18525-0.96529 0-1.3873 0.29481-0.64455 0.85522-1.234 1.5258-1.5548 1.4856-0.57528 2.89-0.14155 4.1501 0.58653 0.41014 0.22547 0.79724 0.67352 1.0807 1.1245 0.0811 0.15263 0.13838 0.37819 0.22546 0.56047 0.39296 1.6821 0.9653 3.4766 0.39296 5.0024-0.26569 0.52025-0.90193 0.84398-0.72856 1.6412 0.41607-0.34919 0.57234 0.21122 0.57234 0.33557 0.30654 1.15 0.98249 2.7338 0 3.4505-1.231 0.75699-1.1328-0.25144-2.41 0-0.63033 0.0694-1.1097-0.11242-1.0404 0.46224 0.0462 0.3356 0.53146 1.0926 0.84395 1.1908 2.9705 0.75699 4.5141 0.99668 7.6408 1.4998 0.65873 0.15611 1.1618 0.93926 1.9478 1.0517 0.57234 0.0839 1.2198 0.39358 1.8667-0.3782 0.19127-0.26568 0.79781 0 0.86706 0.16752 0.15644 0.6043 0.52026 0.6043 0.91324 0.81497 0.95348 0.46224 0.64157 2.8871 1.9016 2.1011 0.6765-0.44802 1.266 0.0431 2.023-0.1102-0.75703 1.0375-0.36401 2.0608 0.36394 2.8036 0.58951 0.72798 1.4453 1.0659 2.1561 1.7365 0.5605 0.64749 1.4619 0.47703 1.543-0.41904 0.13902-0.95349-0.88423-2.0602 0.33557-2.887 1.179 1.6678-0.33557 3.7423 0.9014 5.271 0.0811 0.15328 0.15041 0.22262 0.21945 0.36458 0.56046 0.69898 1.0286 1.4305 1.7684 1.3435 0.54923-0.18177 0.76881-0.69898 1.0405-1.2743 0.0127-0.21121 0.0982-0.43383 0.15042-0.47702 0.0871-0.54629 0.31192-0.91029 0.46224-1.3725 0.26632-0.74279 1.1908-1.3323 1.0405-2.1875 0-0.26632-0.0693-0.61848-0.0693-0.84104 0.0693-1.1648 1.3465-1.9075 2.4509-1.711 0.32316 0.0693 0.0865-0.19634 0.38114-0.42199 0.47409-0.36398 0.36401-1.4566 0.79785-2.0028 0.36397-0.47646 0.78596-0.9393 1.0346-1.4157 0.18461-0.30938 0.53741-0.65933 0.39298-1.0807 0.43323 0 0.43323-0.57528 0.85522-0.63032z"/>
  <path d="m70.17 63.66s-1.2198-25.304 32.02-38.162c0 0-11.455 23.68-20.108 29.29-8.647 5.6498-11.912 8.8719-11.912 8.8719zm-15.478 30.942s7.2301-7.4994 13.108-11.005c5.8605-3.56 24.067-21.55 27.408-35.609 0 0-1.208-1.5572-7.0513 6.0979-4.4448 5.8895-9.1554 3.0143-22.432 19.909 0 0-1.8785 3.7713-2.8208 3.4617-0.98246-0.15264 0.451-3.924 0.451-3.924s2.6071-10.502 2.7859-14.314c0.22547-3.7595 5.641-23.596 7.5195-26.188 0 0-18.073 10.273-20.57 39.294 0 0 0.65933 21.073 1.6015 22.278zm-7.0519 42.071s3.9944-9.2939 6.8264-12.406c2.832-2.9705 22.177-31.332 23.876-44.23 0 0-1.6992-0.87004-3.5488 2.355-1.8667 3.3351-11.213 12.629-12.872 14.059-1.6643 1.4305-11.421 11.958-12.45 23.16 0 0-0.85522 1.1937 1.0287-17.55 1.8034-18.704-6.086-30.83 0.47405-43.993 0 0-9.1554 1.4157-14.103 39.814 0 0 0.23719 13.571 7.2596 30.2 0 0 2.3698 8.5914 3.5079 8.5914zm6.1097 40.979s0.4794-10.317 2.3289-13.582c1.8673-3.3523 13.12-23.61 10.768-49.588 0 0-1.8673-1.656-5.3699 8.4239-3.531 10.08-8.3866 13.083-10.097 23.175-1.6359 9.9958-1.6359 14.23-1.6359 14.23s-1.1269 1.4045-1.1269 0.25397c0-1.2192-1.231-14.735-6.7974-27.113-5.5948-12.395-13.137-24.113-12.432-32.344 0 0-3.2948 0.26632-2.8208 13.6 0.47997 13.375 3.9938 36.549 27.183 62.945zm19.432 40.459s-1.3991-5.8144-1.3991-10.739c0-4.9473 2.0981-21.784 2.0981-29.298 0-7.5136-0.69898-21.507-6.5423-30.997 0 0 0 8.3552-1.8673 12.126-1.8898 3.6872-3.9938 18.663-3.9938 20.512 0 1.8608 0.44507 14.536 3.7571 21.31 0 0-2.3295-1.3761-4.9763-6.2713-2.5663-4.9881-8.8778-14.074-18.438-23.662-9.5478-9.5892-11.704-18.464-11.704-18.464s-2.3177 16.822 10.08 34.532c12.392 17.9 17.496 14.773 24.322 22.067 0 0 7.7391 9.404 8.6641 8.8837zm31.124 34.465s-3.4736-5.3574-4.2021-14.571c-0.68774-9.1086-6.3287-30.142-22.224-53.105 0 0-2.3579 36.297 15.629 58.544 0 0 1.237 3.2422-1.121 0.87242-2.3236-2.3408-13.797-16.079-38.441-32.766 0 0-12.843-10.525-13.513-14.004 0 0 10.068 51.51 63.873 55.029zm39.384 15.883s-9.3809-5.5948-14.357-15.883c-4.878-10.352-17.762-26.709-30.645-36.777 0 0 14.496 45.915 29.535 47.961 0 0 2.329 1.4335-1.8785 0.72799-4.2306-0.72799-23.437-7.7622-30.222-8.9412-6.7915-1.1505-23.402-4.907-27.876-9.3519-3.7281-3.7452-6.3234-3.225-6.3234-3.225s18.495 30.841 51.776 30.841c0 0 16.351-1.3873 29.992-5.3521zm101.05 35.344c-10.779-15.941-43.36-33.032-75.351-33.032-32.02 0-66.734 18.548-80.519 8.7334 0 0 14.039 12.115 42.4 12.115 28.275 0 39.112-14.27 58.752-14.27 19.599 0 40.389 15.923 49.082 29.298zm85.171-240.14s1.2198-25.304-32.136-38.162c0 0 11.554 23.68 20.218 29.29 8.6523 5.6498 11.918 8.8719 11.918 8.8719zm15.461 30.942s-7.2768-7.4994-13.137-11.005c-5.8031-3.56-24.055-21.55-27.333-35.609 0 0 1.1736-1.5572 7.0052 6.0979 4.462 5.8895 9.0861 3.0143 22.478 19.909 0 0 1.8786 3.7713 2.8149 3.4617 0.89547-0.15264-0.49124-3.924-0.49124-3.924s-2.6071-10.502-2.832-14.314c-0.19696-3.7595-5.5664-23.596-7.4449-26.188 0 0 17.987 10.273 20.611 39.294 0 0-0.77479 21.073-1.6708 22.278zm7.0691 42.071s-4.04-9.2939-6.8436-12.406c-2.803-2.9705-22.264-31.332-23.848-44.23 0 0 1.5838-0.87004 3.4795 2.355 1.8904 3.3351 11.254 12.629 12.866 14.059 1.682 1.4305 11.496 11.958 12.421 23.16 0 0 0.94224 1.1937-0.92508-17.55-1.8495-18.704 6.115-30.83-0.44507-43.993 0 0 9.1382 1.4157 14.004 39.814 0 0-0.20773 13.571-7.236 30.2 0 0-2.3526 8.5914-3.4736 8.5914zm-6.173 40.979s-0.40482-10.317-2.2656-13.582c-1.965-3.3523-13.097-23.61-10.785-49.588 0 0 1.8495-1.656 5.3698 8.4239 3.4505 10.08 8.4558 13.083 10.051 23.175 1.6992 9.9958 1.6992 14.23 1.6992 14.23s1.1216 1.4045 1.1216 0.25397c0-1.2192 1.1902-14.735 6.8258-27.113 5.5829-12.395 13.051-24.113 12.38-32.344 0 0 3.283 0.26632 2.7628 13.6-0.42202 13.375-3.9536 36.549-27.16 62.945zm-19.328 40.459s1.3696-5.8144 1.3696-10.739c0-4.9473-2.1153-21.784-2.1153-29.298 0-7.5136 0.74571-21.507 6.5311-30.997 0 0 0 8.3552 1.8667 12.126 1.8904 3.6872 3.9944 18.663 3.9944 20.512 0 1.8608-0.49182 14.536-3.7571 21.31 0 0 2.3698-1.3761 4.9473-6.2713 2.5663-4.9881 8.8606-14.074 18.507-23.662 9.5768-9.5892 11.664-18.464 11.664-18.464s2.358 16.822-10.051 34.532c-12.421 17.9-17.553 14.773-24.339 22.067 0 0-7.7503 9.404-8.6174 8.8837zm-31.211 34.465s3.4913-5.3574 4.2081-14.571c0.72798-9.1086 6.3346-30.142 22.293-53.105 0 0 2.3236 36.297-15.762 58.544 0 0-1.0926 3.2422 1.237 0.87242 2.352-2.3408 13.739-16.079 38.395-32.766 0 0 12.802-10.525 13.53-14.004 0 0-10.04 51.51-63.902 55.029zm-39.309 15.883s9.3637-5.5948 14.23-15.883c4.9769-10.352 17.82-26.709 30.76-36.777 0 0-14.554 45.915-29.529 47.961 0 0-2.3692 1.4335 1.8496 0.72799 4.2483-0.72799 23.402-7.7622 30.229-8.9412 6.7447-1.1505 23.373-4.907 27.83-9.3519 3.7683-3.7452 6.3056-3.225 6.3056-3.225s-18.478 30.841-51.717 30.841c0 0-16.357-1.3873-29.957-5.3521zm-101.07 35.344c10.768-15.941 43.349-33.032 75.282-33.032 32.107 0 66.791 18.548 80.513 8.7334 0 0-14.016 12.115-42.308 12.115-28.321 0-39.101-14.27-58.758-14.27-19.668 0-40.488 15.923-49.152 29.298z"/>
 </g>
</svg>
